<?xml version="1.0" encoding="UTF-8" standalone="no"?>
<svg
   xmlns:dc="http://purl.org/dc/elements/1.1/"
   xmlns:cc="http://creativecommons.org/ns#"
   xmlns:rdf="http://www.w3.org/1999/02/22-rdf-syntax-ns#"
   xmlns:svg="http://www.w3.org/2000/svg"
   xmlns="http://www.w3.org/2000/svg"
   xmlns:sodipodi="http://sodipodi.sourceforge.net/DTD/sodipodi-0.dtd"
   xmlns:inkscape="http://www.inkscape.org/namespaces/inkscape"
   inkscape:version="1.0 (4035a4fb49, 2020-05-01)"
   sodipodi:docname="login.svg"
   xml:space="preserve"
   style="enable-background:new 0 0 46.782 46.782;"
   viewBox="0 0 46.782 46.782"
   height="46.782px"
   width="46.782px"
   y="0px"
   x="0px"
   id="Capa_1"
   version="1.1"><metadata
   id="metadata45"><rdf:RDF><cc:Work
       rdf:about=""><dc:format>image/svg+xml</dc:format><dc:type
         rdf:resource="http://purl.org/dc/dcmitype/StillImage" /><dc:title></dc:title></cc:Work></rdf:RDF></metadata><defs
   id="defs43" /><sodipodi:namedview
   inkscape:current-layer="Capa_1"
   inkscape:window-maximized="1"
   inkscape:window-y="-8"
   inkscape:window-x="-8"
   inkscape:cy="23.391001"
   inkscape:cx="23.391001"
   inkscape:zoom="11.026129"
   showgrid="false"
   id="namedview41"
   inkscape:window-height="705"
   inkscape:window-width="1366"
   inkscape:pageshadow="2"
   inkscape:pageopacity="0"
   guidetolerance="10"
   gridtolerance="10"
   objecttolerance="10"
   borderopacity="1"
   bordercolor="#666666"
   pagecolor="#ffffff" />
<g
   style="fill:#404146;fill-opacity:1"
   id="g8">
	<g
   style="fill:#404146;fill-opacity:1"
   id="g6">
		<path
   style="fill:#404146;fill-opacity:1"
   id="path2"
   d="M46.629,32.737l-1.262-2.217c-0.204-0.357-0.709-0.652-1.121-0.652L27.75,29.87c-0.412,0-0.979-0.25-1.256-0.555    l-0.985-1.08c-0.278-0.304-0.844-0.554-1.256-0.554h-5.604l-0.231-2.796c-0.347-2.177-2.387-3.554-4.535-3.072l-9.977,2.247    c-2.148,0.483-3.904,2.669-3.903,4.871L0,37.852c0,2.192,1.758,4.386,3.903,4.873l9.979,2.245    c2.148,0.482,4.188-0.896,4.535-3.075l0.231-2.793l0,0l3.609-0.001c0.412,0,0.978-0.25,1.255-0.554l0.984-1.078    c0.277-0.306,0.843-0.554,1.255-0.554h1.163c0.412,0,0.9-0.303,1.084-0.672l0.154-0.314c0.185-0.37,0.673-0.672,1.084-0.672h0.705    c0.412,0,0.836,0.326,0.94,0.725l0.056,0.208c0.105,0.399,0.514,0.726,0.904,0.726s0.862-0.303,1.047-0.672l0.155-0.315    c0.185-0.37,0.671-0.672,1.083-0.672h0.705c0.412,0,0.835,0.327,0.939,0.726l0.055,0.208c0.104,0.399,0.527,0.726,0.939,0.726    h7.478c0.411,0,0.917-0.293,1.12-0.651l1.263-2.22C46.833,33.683,46.833,33.096,46.629,32.737z M6.883,39.434    c-1.856,0-3.357-2.705-3.357-6.043c0-3.337,1.501-6.042,3.357-6.042c1.855,0,3.356,2.705,3.356,6.042    C10.239,36.729,8.738,39.434,6.883,39.434z" />
		<polygon
   style="fill:#404146;fill-opacity:1"
   id="polygon4"
   points="34.423,9.756 27.607,9.756 27.607,1.716 19.39,1.716 19.39,9.756 12.575,9.756 23.498,23.381   " />
	</g>
</g>
<g
   id="g10">
</g>
<g
   id="g12">
</g>
<g
   id="g14">
</g>
<g
   id="g16">
</g>
<g
   id="g18">
</g>
<g
   id="g20">
</g>
<g
   id="g22">
</g>
<g
   id="g24">
</g>
<g
   id="g26">
</g>
<g
   id="g28">
</g>
<g
   id="g30">
</g>
<g
   id="g32">
</g>
<g
   id="g34">
</g>
<g
   id="g36">
</g>
<g
   id="g38">
</g>
</svg>
