<?xml version="1.0" encoding="UTF-8" standalone="no"?>
<svg
   xmlns:dc="http://purl.org/dc/elements/1.1/"
   xmlns:cc="http://creativecommons.org/ns#"
   xmlns:rdf="http://www.w3.org/1999/02/22-rdf-syntax-ns#"
   xmlns:svg="http://www.w3.org/2000/svg"
   xmlns="http://www.w3.org/2000/svg"
   xmlns:sodipodi="http://sodipodi.sourceforge.net/DTD/sodipodi-0.dtd"
   xmlns:inkscape="http://www.inkscape.org/namespaces/inkscape"
   version="1.1"
   id="Capa_1"
   x="0px"
   y="0px"
   width="310.42px"
   height="310.42px"
   viewBox="0 0 310.42 310.42"
   style="enable-background:new 0 0 310.42 310.42;"
   xml:space="preserve"
   sodipodi:docname="magnifier.svg"
   inkscape:version="1.0 (4035a4fb49, 2020-05-01)"><metadata
   id="metadata47"><rdf:RDF><cc:Work
       rdf:about=""><dc:format>image/svg+xml</dc:format><dc:type
         rdf:resource="http://purl.org/dc/dcmitype/StillImage" /><dc:title></dc:title></cc:Work></rdf:RDF></metadata><defs
   id="defs45">
	
</defs><sodipodi:namedview
   inkscape:document-rotation="0"
   pagecolor="#ffffff"
   bordercolor="#666666"
   borderopacity="1"
   objecttolerance="10"
   gridtolerance="10"
   guidetolerance="10"
   inkscape:pageopacity="0"
   inkscape:pageshadow="2"
   inkscape:window-width="1366"
   inkscape:window-height="705"
   id="namedview43"
   showgrid="false"
   inkscape:zoom="2.451024"
   inkscape:cx="87.119638"
   inkscape:cy="97.571169"
   inkscape:window-x="-8"
   inkscape:window-y="-8"
   inkscape:window-maximized="1"
   inkscape:current-layer="g8" />
<g
   id="g8">
		
		
	<rect
   y="53.039055"
   x="78.742599"
   height="32"
   width="64"
   id="rect848"
   style="opacity:0.994;fill:#000000;stroke-width:1.26769" /><path
   id="path2"
   d="m 120.58307,74.664401 c 4.28802,-4.288117 4.28794,-11.265442 0,-15.553558 -4.28811,-4.288117 -11.26534,-4.288117 -15.55337,0 -3.63788,3.637883 -4.18884,9.048344 -1.65435,13.273331 0,0 0.18205,0.305428 -0.0639,0.551131 -1.40271,1.402626 -5.611104,5.611111 -5.611104,5.611111 -1.116843,1.116756 -1.382715,2.678381 -0.392306,3.668967 l 0.170527,0.170352 c 0.99041,0.990586 2.552123,0.724799 3.668873,-0.392044 0,0 4.19949,-4.199579 5.59932,-5.599322 0.25766,-0.257666 0.56301,-0.07561 0.56301,-0.07561 4.22489,2.534399 9.63534,1.98353 13.27323,-1.654353 z m -13.52295,-2.030506 c -3.16848,-3.168479 -3.1684,-8.323893 8e-5,-11.492372 3.16848,-3.168392 8.32389,-3.168479 11.49228,0 3.16847,3.168391 3.16847,8.323893 0,11.492372 -3.16847,3.168305 -8.3238,3.168305 -11.49236,0 z"
   style="fill:#ffffff;stroke-width:0.087315" /><g
   transform="matrix(0.0873147,0,0,0.08731479,96.6949,55.894777)"
   id="g6"
   style="fill:#ffffff">
			<path
   id="path4"
   d="m 126.75,118.424 c -1.689,0 -3.406,-0.332 -5.061,-1.031 -6.611,-2.798 -9.704,-10.426 -6.906,-17.038 17.586,-41.559 65.703,-61.062 107.261,-43.476 6.611,2.798 9.704,10.426 6.906,17.038 -2.799,6.612 -10.425,9.703 -17.039,6.906 -28.354,-11.998 -61.186,1.309 -73.183,29.663 -2.099,4.959 -6.913,7.938 -11.978,7.938 z"
   style="fill:#ffffff" />
		</g></g>
<g
   id="g12">
</g>
<g
   id="g14">
</g>
<g
   id="g16">
</g>
<g
   id="g18">
</g>
<g
   id="g20">
</g>
<g
   id="g22">
</g>
<g
   id="g24">
</g>
<g
   id="g26">
</g>
<g
   id="g28">
</g>
<g
   id="g30">
</g>
<g
   id="g32">
</g>
<g
   id="g34">
</g>
<g
   id="g36">
</g>
<g
   id="g38">
</g>
<g
   id="g40">
</g>
</svg>
